<?xml version="1.0" encoding="UTF-8" standalone="no"?>
<svg
   xmlns:dc="http://purl.org/dc/elements/1.1/"
   xmlns:cc="http://creativecommons.org/ns#"
   xmlns:rdf="http://www.w3.org/1999/02/22-rdf-syntax-ns#"
   xmlns:svg="http://www.w3.org/2000/svg"
   xmlns="http://www.w3.org/2000/svg"
   xmlns:sodipodi="http://sodipodi.sourceforge.net/DTD/sodipodi-0.dtd"
   xmlns:inkscape="http://www.inkscape.org/namespaces/inkscape"
   inkscape:version="1.0 (4035a4fb49, 2020-05-01)"
   sodipodi:docname="circle.svg"
   id="svg6"
   version="1.1"
   viewBox="-10 -10 19.999941 17.626612"
   height="17.626612mm"
   width="19.999941mm">
  <metadata
     id="metadata12">
    <rdf:RDF>
      <cc:Work
         rdf:about="">
        <dc:format>image/svg+xml</dc:format>
        <dc:type
           rdf:resource="http://purl.org/dc/dcmitype/StillImage" />
        <dc:title>OpenSCAD Model</dc:title>
      </cc:Work>
    </rdf:RDF>
  </metadata>
  <defs
     id="defs10" />
  <sodipodi:namedview
     inkscape:current-layer="svg6"
     inkscape:window-maximized="1"
     inkscape:window-y="-8"
     inkscape:window-x="-8"
     inkscape:cy="33.941142"
     inkscape:cx="37.795164"
     inkscape:zoom="9.5708259"
     fit-margin-bottom="0"
     fit-margin-right="0"
     fit-margin-left="0"
     fit-margin-top="0"
     showgrid="false"
     id="namedview8"
     inkscape:window-height="897"
     inkscape:window-width="1707"
     inkscape:pageshadow="2"
     inkscape:pageopacity="0"
     guidetolerance="10"
     gridtolerance="10"
     objecttolerance="10"
     borderopacity="1"
     bordercolor="#666666"
     pagecolor="#ffffff" />
  <title
     id="title2">OpenSCAD Model</title>
  <path
     id="path4"
     stroke-width="0"
     fill="#3e558b"
     stroke="#000000"
     d="m 7.2896305,-9.1991094 0.80049,0.96764 0.67291,1.06032 0.53468,1.13629 0.38807,1.19432 0.2353,1.23358 0.07886,1.25331 -0.07886,1.25331 -0.2353,1.23357994 -0.38807,1.19432006 -0.53468,1.13629 -0.67291,1.06032 -0.80049,0.96764 -0.91544,0.85965 -1.01597,0.73814 -1.10048,0.605 -1.16762,0.46229 -1.21636,0.31231 -1.245906,0.15741 h -1.255768 l -1.245906,-0.15741 -1.21636,-0.31231 -1.16762,-0.46229 -1.10048,-0.605 -1.01597,-0.73814 -0.91544,-0.85965 -0.80049,-0.96764 -0.67291,-1.06032 -0.53468,-1.13629 -0.38807,-1.19432006 -0.2353,-1.23357994 -0.07886,-1.25331 0.07886,-1.25331 0.21921,-1.14925 16.13871,-5.24379 z" />
</svg>
