<?xml version="1.0" encoding="UTF-8" standalone="no"?>
<svg
   xmlns:dc="http://purl.org/dc/elements/1.1/"
   xmlns:cc="http://creativecommons.org/ns#"
   xmlns:rdf="http://www.w3.org/1999/02/22-rdf-syntax-ns#"
   xmlns:svg="http://www.w3.org/2000/svg"
   xmlns="http://www.w3.org/2000/svg"
   xmlns:sodipodi="http://sodipodi.sourceforge.net/DTD/sodipodi-0.dtd"
   xmlns:inkscape="http://www.inkscape.org/namespaces/inkscape"
   inkscape:version="1.0 (4035a4fb49, 2020-05-01)"
   sodipodi:docname="heart.svg"
   id="svg6"
   version="1.1"
   viewBox="-9 -12 20.000002 20.001013"
   height="20.001013mm"
   width="20.000002mm">
  <metadata
     id="metadata12">
    <rdf:RDF>
      <cc:Work
         rdf:about="">
        <dc:format>image/svg+xml</dc:format>
        <dc:type
           rdf:resource="http://purl.org/dc/dcmitype/StillImage" />
        <dc:title>OpenSCAD Model</dc:title>
      </cc:Work>
    </rdf:RDF>
  </metadata>
  <defs
     id="defs10" />
  <sodipodi:namedview
     fit-margin-bottom="0"
     fit-margin-right="0"
     fit-margin-left="0"
     fit-margin-top="0"
     inkscape:current-layer="svg6"
     inkscape:window-maximized="1"
     inkscape:window-y="-8"
     inkscape:window-x="-8"
     inkscape:cy="-10.33648"
     inkscape:cx="60.44036"
     inkscape:zoom="4.4907101"
     showgrid="false"
     id="namedview8"
     inkscape:window-height="897"
     inkscape:window-width="1707"
     inkscape:pageshadow="2"
     inkscape:pageopacity="0"
     guidetolerance="10"
     gridtolerance="10"
     objecttolerance="10"
     borderopacity="1"
     bordercolor="#666666"
     pagecolor="#ffffff" />
  <title
     id="title2">OpenSCAD Model</title>
  <path
     sodipodi:nodetypes="acccccccccccccccccccccccccccccccccccccccccccccccccccccccccsscaa"
     id="path4"
     stroke-width="0"
     fill="#3e558b"
     stroke="#000000"
     d="m 4.3575405,-11.974358 c 0.2616232,0.0019 0.78489,0 0.78489,0 l 0.7787,0.09837 0.76021,0.19519 0.72976,0.28894 0.68779,0.37812 0.635,0.46135 0.57211,0.53727 0.5003,0.6047696 0.4206005,0.66269 0.3342,0.71017 0.2425,0.74649 0.1471,0.77097 0.0493,0.78334 -0.0493,0.78334 -0.1471,0.770966 -0.2425,0.74646 -0.3342,0.710194 -0.4206005,0.66269 -0.5003,0.60476 -0.57211,0.53728 -0.635,0.46135 -0.68779,0.37811 -0.72976,0.28894 -0.76021,0.19518 -0.7787,0.09839 h -0.78489 l -0.7787,-0.09839 -0.07884,-0.02024 v 0.13097 h -0.13831 l 0.08902,0.46664 0.04929,0.78336 -0.04929,0.78333 -0.14708,0.77096 -0.24253,0.74648 -0.33419,0.71019 -0.42057,0.66269 -0.50029,0.60476 -0.57216,0.53729 -0.635,0.4613 -0.687788,0.3782 -0.7297666,0.2889 -0.7601924,0.1952 -0.778703,0.0984 h -0.7849 l -0.77868,-0.0984 -0.76021,-0.1952 -0.72978,-0.2889 -0.68779,-0.3782 -0.635,-0.4613 -0.57214,-0.53729 -0.50029,-0.60476 -0.42058,-0.66269 -0.33418,-0.71019 -0.24254,-0.74648 -0.14708,-0.77096 -0.04927,-0.78333 0.00508,-0.7723129 c 0.00309,-0.4692237 -0.00508,-0.35482854 -0.00508,-0.4776871 V -11.986688 c 0,0 8.33344099,-0.02995 12.5,0 0.2858688,0.0021 0.5716712,0.01028 0.85754,0.01233 z" />
</svg>
